<?xml version="1.0" encoding="utf-8"?>
<!-- Generator: Adobe Illustrator 22.1.0, SVG Export Plug-In . SVG Version: 6.00 Build 0)  -->
<svg version="1.1" id="Layer_1" xmlns="http://www.w3.org/2000/svg" xmlns:xlink="http://www.w3.org/1999/xlink" x="0px" y="0px"
	 viewBox="0 0 400 400" style="enable-background:new 0 0 400 400;" xml:space="preserve">
<style type="text/css">
	.st0{fill:#CF0074;}
	.st1{fill:#CF5885;}
	.st2{fill:#A01863;}
	.st3{fill:#FFFFFF;}
</style>
<g>
	<path class="st0" d="M318.6,166.3c0,70.8-128.2,195.6-128.2,195.6V38.1C261.2,38.1,318.6,95.5,318.6,166.3z"/>
	<path class="st1" d="M62.2,166.3c0,70.8,128.2,195.6,128.2,195.6V38.1C119.6,38.1,62.2,95.5,62.2,166.3z"/>
	<circle class="st2" cx="190.4" cy="160.6" r="107.6"/>
</g>
<g>
	<path class="st3" d="M156.2,116L156.2,116c-26.5,0-47.9,21.5-47.9,47.9v0c0,26.3,21.3,47.6,47.6,47.6h47.9v-47.9
		C203.8,137.3,182.5,116,156.2,116z M178.4,186.2H156c-12.3,0-22.3-10-22.3-22.3c0-12.4,10.1-22.5,22.5-22.5
		c12.3,0,22.3,10,22.3,22.3V186.2z"/>
	<rect x="234" y="116" class="st3" width="30.5" height="30.5"/>
	<rect x="234" y="181" class="st3" width="30.5" height="30.5"/>
</g>
</svg>
