<?xml version="1.0" encoding="utf-8"?>
<!-- Generator: Adobe Illustrator 22.0.1, SVG Export Plug-In . SVG Version: 6.00 Build 0)  -->
<svg version="1.1" id="Laag_1" xmlns="http://www.w3.org/2000/svg" xmlns:xlink="http://www.w3.org/1999/xlink" x="0px" y="0px"
	 viewBox="0 0 820 312" style="enable-background:new 0 0 820 312;" xml:space="preserve">
<style type="text/css">
	.st0{fill:none;}
	.st1{fill:#FCAF17;}
	.st2{font-family:'NeoSansPro-Bold';}
	.st3{font-size:59px;}
	.st4{fill:#B0D235;}
	.st5{fill:#669940;}
	.st6{fill:#00B4CD;}
	.st7{fill:#008791;}
	.st8{fill:#C8892B;}
	.st9{fill:#D80B8C;}
	.st10{fill:#A92176;}
	.st11{fill:#679A45;}
	.st12{font-family:'NeoSansPro-Medium';}
	.st13{font-size:16px;}
	.st14{font-size:21px;}
	.st15{font-size:36px;}
</style>
<rect x="339.1" y="48.5" class="st0" width="491.4" height="159.2"/>
<text transform="matrix(1 0 0 1 339.1047 93.803)" class="st1 st2 st3">OPENDEURDAG</text>
<g>
	<polygon class="st4" points="240.9,289 171.9,289 135.7,245.2 204.9,245.2 	"/>
	<polygon class="st5" points="204.9,245.2 135.9,245.2 99.7,201.3 168.9,201.3 	"/>
	<polygon class="st6" points="308.8,289 240.9,289 204.8,245.2 273.5,245.3 	"/>
	<polygon class="st7" points="273.5,245.3 204.4,245.2 168.1,201.3 237.3,201.3 	"/>
	<polygon class="st1" points="308.8,289 273.5,245.3 273.1,161.8 310.2,204.7 	"/>
	<polygon class="st8" points="273.5,245.3 237.3,201.3 237.9,119.7 273.1,161.8 	"/>
	<polygon class="st9" points="310.2,204.7 273.1,161.8 272.6,78.3 309.8,121.2 	"/>
	<polygon class="st10" points="273.1,161.8 237.9,119.7 239,40.3 272.6,78.3 	"/>
</g>
<g>
	<path class="st11" d="M101.2,181.7c-0.3,0-0.5-0.2-0.5-0.5v-1.9c0-0.3,0.2-0.4,0.5-0.4h3.3v-12.1l-3.2,1c-0.1,0-0.2,0-0.3,0
		c-0.2,0-0.3-0.1-0.3-0.3v-2.3c0-0.1,0-0.2,0.2-0.3l4.3-1.4c0.1,0,0.3-0.1,0.6-0.1h1.6c0.3,0,0.5,0.2,0.5,0.5v14.9h3.3
		c0.3,0,0.5,0.2,0.5,0.4v1.9c0,0.3-0.2,0.5-0.5,0.5H101.2z"/>
	<path class="st11" d="M121.2,181.9c-4,0-6.4-2.3-6.4-8.4v-1.8c0-6.1,2.4-8.4,6.4-8.4c4,0,6.4,2.3,6.4,8.4v1.8
		C127.6,179.6,125.2,181.9,121.2,181.9z M124.2,171.7c0-4.4-1.3-5.6-3-5.6s-3,1.2-3,5.6v1.8c0,4.4,1.3,5.6,3,5.6s3-1.2,3-5.6V171.7z
		"/>
	<path class="st11" d="M143.9,181.7c-0.6,0.1-1.1,0.2-1.7,0.2c-2.8,0-3.9-0.6-3.9-3.9v-7.7l-2.3-0.3c-0.3,0-0.5-0.2-0.5-0.5v-1.1
		c0-0.3,0.2-0.5,0.5-0.5h2.3v-2c0-0.3,0.2-0.4,0.5-0.5l2.3-0.4c0,0,0.1,0,0.1,0c0.2,0,0.4,0.1,0.4,0.4v2.5h2.2
		c0.3,0,0.5,0.2,0.5,0.5v1.4c0,0.3-0.2,0.5-0.5,0.5h-2.2v7.7c0,1.2,0.1,1.4,1,1.4h1.3c0.3,0,0.5,0.1,0.5,0.4v1.5
		C144.4,181.5,144.2,181.7,143.9,181.7z"/>
	<path class="st11" d="M151.8,181.9c-3.8,0-5.9-2.6-5.9-6.1v-2c0-3.5,2-6.1,5.9-6.1c3.8,0,5.9,2.6,5.9,6.1v2
		C157.6,179.3,155.6,181.9,151.8,181.9z M154.4,173.8c0-2-0.9-3.3-2.6-3.3s-2.6,1.3-2.6,3.3v2c0,2,0.9,3.3,2.6,3.3s2.6-1.3,2.6-3.3
		V173.8z"/>
	<path class="st11" d="M167,181.7c-0.6,0.1-1.1,0.2-1.7,0.2c-2.8,0-3.9-0.6-3.9-3.9v-7.7l-2.3-0.3c-0.3,0-0.5-0.2-0.5-0.5v-1.1
		c0-0.3,0.2-0.5,0.5-0.5h2.3v-2c0-0.3,0.2-0.4,0.5-0.5l2.3-0.4c0,0,0.1,0,0.1,0c0.2,0,0.4,0.1,0.4,0.4v2.5h2.2
		c0.3,0,0.5,0.2,0.5,0.5v1.4c0,0.3-0.2,0.5-0.5,0.5h-2.2v7.7c0,1.2,0.1,1.4,1,1.4h1.3c0.3,0,0.5,0.1,0.5,0.4v1.5
		C167.5,181.5,167.4,181.7,167,181.7z"/>
	<path class="st11" d="M177.4,181.7c-0.3,0-0.5-0.2-0.5-0.5v-1.9c0-0.3,0.2-0.4,0.5-0.4h3.3v-12.1l-3.2,1c-0.1,0-0.2,0-0.3,0
		c-0.2,0-0.3-0.1-0.3-0.3v-2.3c0-0.1,0-0.2,0.2-0.3l4.3-1.4c0.1,0,0.3-0.1,0.6-0.1h1.6c0.3,0,0.5,0.2,0.5,0.5v14.9h3.3
		c0.3,0,0.5,0.2,0.5,0.4v1.9c0,0.3-0.2,0.5-0.5,0.5H177.4z"/>
	<path class="st11" d="M202.8,166.9l-6.6,14.3c-0.2,0.4-0.3,0.5-0.7,0.5H193c-0.2,0-0.3-0.2-0.3-0.4c0-0.1,0-0.1,0-0.2l7-14.7
		c0,0,0,0,0,0c0,0,0-0.1-0.1-0.1h-7.5c-0.3,0-0.5-0.2-0.5-0.4v-1.9c0-0.3,0.2-0.5,0.5-0.5h10.2c0.5,0,1,0.4,1,1v1.3
		C203.3,166,203.1,166.3,202.8,166.9z"/>
	<path class="st11" d="M217.6,181.7h-2.3c-0.3,0-0.5-0.2-0.5-0.5v-0.6c-1.3,0.8-2.3,1.2-3.8,1.2c-1.2,0-2.3-0.3-3-1
		c-0.9-0.9-1.2-2.4-1.2-4.5v-8c0-0.3,0.2-0.5,0.5-0.5h2.3c0.3,0,0.5,0.2,0.5,0.5v8c0,1.2,0.1,1.9,0.6,2.4c0.3,0.3,0.8,0.4,1.5,0.4
		c0.9,0,2.1-0.6,2.8-1v-9.8c0-0.3,0.2-0.5,0.5-0.5h2.3c0.3,0,0.5,0.2,0.5,0.5v12.8C218,181.5,217.8,181.7,217.6,181.7z"/>
</g>
<g>
	<path d="M116.4,101.3c-5.1,0-9.4-0.8-13.4-1.7c-0.7-0.1-1.3-0.6-1.3-1.3V94c0-0.8,0.6-1.3,1.3-1.3c0.1,0,0.1,0,0.1,0
		c5.5,0.6,9.9,1,13.3,1c5.6,0,7.8-2.5,7.8-7.4v-1.5c0-3.7-1.1-7-6.4-7h-12.3c-0.8,0-1.3-0.6-1.3-1.3v-4.4c0-0.8,0.6-1.3,1.3-1.3
		h12.3c5.3,0,6.4-3.1,6.4-6.8v-1.1c0-3.5-1.4-6.7-7.8-6.7c-4.9,0-7.2,0.3-13.3,1c-0.1,0-0.1,0-0.1,0c-0.7,0-1.3-0.5-1.3-1.3v-4.3
		c0-0.7,0.6-1.2,1.3-1.3c4-1,8.2-1.7,13.4-1.7c10,0,17.5,3.8,17.5,14.3V64c0,4.9-2.2,8.3-6,10.3c3.8,2.1,6,6.1,6,10.6v1.5
		C133.8,96.7,126.3,101.3,116.4,101.3z"/>
	<path d="M161.6,101.3c-11.3,0-18.2-6.5-18.2-23.8v-5.1c0-17.3,6.9-23.9,18.2-23.9c11.3,0,18.2,6.5,18.2,23.9v5.1
		C179.7,94.9,172.9,101.3,161.6,101.3z M170.1,72.4c0-12.6-3.7-16-8.5-16c-4.8,0-8.5,3.4-8.5,16v5.1c0,12.6,3.7,15.9,8.5,15.9
		c4.8,0,8.5-3.3,8.5-15.9V72.4z"/>
</g>
<g>
	<path d="M105,154.7c-1,0-2-0.1-3.1-0.3c-0.6-0.1-0.9-0.4-0.9-0.9v-3.1c0-0.5,0.4-0.8,1-0.8h2.1c1.5,0,1.7-0.6,1.7-2.5v-27.7
		c0-0.5,0.4-0.9,0.9-0.9h4.3c0.5,0,0.9,0.4,0.9,0.9v27.7C112,153,109.4,154.7,105,154.7z M111.2,115.1h-4.5c-0.5,0-0.9-0.4-0.9-0.9
		V110c0-0.5,0.4-0.9,0.9-0.9h4.5c0.5,0,1,0.4,1,0.9v4.2C112.2,114.7,111.7,115.1,111.2,115.1z"/>
	<path d="M139.2,145.3h-4.3c-0.5,0-0.9-0.4-0.9-0.9v-1.1c-2.5,1.6-4.4,2.4-7.4,2.4c-2.4,0-4.4-0.6-5.8-2c-1.7-1.7-2.4-4.7-2.4-8.6
		v-15.4c0-0.5,0.4-1,0.9-1h4.3c0.5,0,0.9,0.5,0.9,1V135c0,2.4,0.2,3.7,1.1,4.5c0.7,0.6,1.5,0.9,2.9,0.9c1.7,0,4-1.2,5.3-1.9v-18.9
		c0-0.5,0.4-1,0.9-1h4.3c0.5,0,0.9,0.5,0.9,1v24.7C140.1,144.9,139.7,145.3,139.2,145.3z"/>
	<path d="M167.1,145.3h-4.3c-0.5,0-0.9-0.5-0.9-1v-15.4c0-4.1-0.4-5.3-4-5.3c-1.6,0-3.4,0.7-5.3,1.7v19c0,0.5-0.4,1-0.9,1h-4.3
		c-0.5,0-0.9-0.5-0.9-1v-24.7c0-0.5,0.4-0.9,0.9-0.9h4.1c0.5,0,0.9,0.4,0.9,0.9v1c2.7-1.7,4.5-2.3,7.7-2.3c6.8,0,8.2,4.6,8.2,10.6
		v15.4C168.1,144.8,167.7,145.3,167.1,145.3z"/>
	<path d="M179.8,115.1h-4.6c-0.5,0-1-0.4-1-0.9V110c0-0.5,0.5-0.9,1-0.9h4.6c0.5,0,0.9,0.4,0.9,0.9v4.2
		C180.8,114.7,180.3,115.1,179.8,115.1z M179.7,145.3h-4.3c-0.5,0-0.9-0.5-0.9-1v-24.7c0-0.5,0.4-0.9,0.9-0.9h4.3
		c0.5,0,0.9,0.4,0.9,0.9v24.7C180.6,144.8,180.2,145.3,179.7,145.3z"/>
</g>
<g>
	<path d="M202.6,130.7l2.4,3.6c2.5,3.8,4.6,5.7,7.9,5.7h0.2v-13.3c0-0.4,0.3-0.8,0.7-0.8h3.1c0.4,0,0.8,0.4,0.8,0.8v17.1
		c0,0.4-0.4,0.8-0.8,0.8h-3.9c-4.4,0-8.3-2.8-10.6-6.1l-2.7-4c-2.1-3.1-2.7-3.7-4.9-3.7c-2.2,0-3,1.4-3,4.7c0,2.4,0.3,5.6,0.6,8.1
		c0,0,0,0,0,0.1c0,0.4-0.4,0.7-0.8,0.7h-2.4c-0.4,0-0.6-0.4-0.8-0.8c-0.6-2.1-1-5.5-1-8.1c0-7.1,2.4-9.9,7.4-9.9
		C198.1,125.7,200.4,127.4,202.6,130.7z"/>
	<path d="M218,109.9c0,6.5-3.7,10.5-13.8,10.5h-3c-10,0-13.8-4-13.8-10.5c0-6.5,3.8-10.5,13.8-10.5h3
		C214.3,99.4,218,103.3,218,109.9z M201.2,105c-7.3,0-9.3,2.1-9.3,4.9s2,4.9,9.3,4.9h3c7.3,0,9.2-2.1,9.2-4.9s-1.9-4.9-9.2-4.9
		H201.2z"/>
	<path d="M217.7,92c0,0.4-0.4,0.8-0.8,0.8h-3.1c-0.4,0-0.7-0.4-0.7-0.8v-5.4h-19.8l1.6,5.3c0.1,0.2,0.1,0.4,0.1,0.5
		c0,0.3-0.1,0.4-0.5,0.4h-3.8c-0.2,0-0.4-0.1-0.4-0.3l-2.3-7.1c-0.1-0.2-0.2-0.5-0.2-0.9v-2.7c0-0.4,0.3-0.8,0.8-0.8h24.6v-5.4
		c0-0.4,0.3-0.8,0.7-0.8h3.1c0.4,0,0.8,0.4,0.8,0.8V92z"/>
	<path d="M218,58.9v0.4c0,5.5-2.6,10.3-9,10.3h-0.4c-2.7,0-5-1.5-6.6-3.7c-1.6,2.5-3.8,3.5-6.3,3.5h-0.2c-6,0-8.2-4.6-8.2-10.2v-0.4
		c0-5.5,2.2-10.2,8.2-10.2h0.2c2.5,0,4.7,1.1,6.3,3.5c1.5-2.2,3.9-3.7,6.6-3.7h0.4C215.4,48.5,218,53.4,218,58.9z M195.8,53.9
		c-2.7,0-4.3,1.5-4.3,5v0.4c0,3.5,1.6,5,4.3,5h0.2c2.3,0,4.2-1.2,4.2-4.4v-1.7c0-3.1-1.8-4.4-4.2-4.4H195.8z M208.7,54
		c-1.9,0-4.4,1.1-4.4,4.3v1.7c0,3.2,2.5,4.3,4.4,4.3h0.4c2.7,0,4.8-1.6,4.8-4.9v-0.4c0-3.3-2.1-4.9-4.8-4.9H208.7z"/>
</g>
<rect x="341.7" y="254.1" class="st0" width="254.9" height="42.4"/>
<text transform="matrix(1 0 0 1 341.7478 266.3212)"><tspan x="0" y="0" class="st9 st12 st13">Mediacampus Mariakerke</tspan><tspan x="0" y="22.9" class="st5 st12 st14">gdm.gent/opendeurdag</tspan></text>
<rect x="339.9" y="119.3" class="st0" width="280.6" height="93.7"/>
<text transform="matrix(1 0 0 1 339.8848 146.6752)"><tspan x="0" y="0" class="st12 st15">Grafische en </tspan><tspan x="0" y="33.9" class="st12 st15">Digitale Media</tspan></text>
<g>
	<g>
		<path class="st1" d="M682.8,289.4c-1.1,0-2.3,0-3.4,0c-3.4,0-6.6-2.6-7.2-6c-0.8-4.1,1.6-7.9,5.7-8.8c4-1,8.3,1.8,9,5.8
			c0.1,0.5,0.2,1.1,0.2,1.6c0,2.3,0,4.6,0,6.9c0,0.4-0.1,0.5-0.5,0.5C685.3,289.4,684.1,289.4,682.8,289.4z M680.5,284.4
			c0.4,0,0.8,0,1.2,0c0.3,0,0.4-0.1,0.3-0.3c0-0.7,0-1.4,0-2.1c0-1.4-1.1-2.5-2.5-2.5c-1.3,0-2.5,1.1-2.5,2.5c0,1.4,1.1,2.5,2.5,2.5
			C679.8,284.4,680.1,284.4,680.5,284.4z"/>
		<path class="st4" d="M691.9,277c0-0.7,0-1.4,0-2.1c0-0.2,0.1-0.3,0.3-0.3c1.5,0,2.9,0,4.4,0c0.2,0,0.3,0.1,0.3,0.3
			c0,1.5,0,2.9,0,4.4c0,0.2-0.1,0.3-0.3,0.3c-1.5,0-3,0-4.5,0c-0.2,0-0.3-0.1-0.3-0.3C691.9,278.5,691.9,277.8,691.9,277z"/>
		<path class="st4" d="M694.4,289.4c-0.7,0-1.4,0-2.1,0c-0.3,0-0.3-0.1-0.3-0.3c0-1.4,0-2.9,0-4.3c0-0.3,0-0.4,0.3-0.4
			c1.4,0,2.9,0,4.3,0c0.3,0,0.3,0.1,0.3,0.4c0,1.4,0,2.9,0,4.3c0,0.3-0.1,0.3-0.4,0.3C695.9,289.4,695.1,289.4,694.4,289.4z"/>
	</g>
</g>
<g>
	<path class="st6" d="M727.6,282c0,0.7,0,1.3,0,2c0,0.3-0.1,0.4-0.4,0.5c-0.6,0.1-1.2,0.2-1.8,0.1c-0.6-0.2-1-0.6-1-1.3
		c0-0.3,0-0.6,0-0.9c0-1,0.5-1.6,1.5-1.6c0.5,0,0.6-0.2,0.5-0.6c0-0.4-0.1-0.7,0.5-0.6c0.6,0,0.6,0,0.6,0.6
		C727.6,280.7,727.6,281.3,727.6,282z M726.5,282.7c0-0.2,0-0.3,0-0.5c0-0.2,0.1-0.5-0.2-0.5c-0.3,0-0.7,0-0.8,0.4
		c-0.1,0.4-0.1,0.8,0,1.2c0.1,0.4,0.4,0.4,0.7,0.4c0.4,0,0.2-0.3,0.2-0.5C726.5,283,726.5,282.8,726.5,282.7z"/>
	<path class="st6" d="M730.4,282.9c-0.2,0-0.4,0-0.6,0c-0.1,0-0.4-0.1-0.4,0.1c0,0.2,0.1,0.4,0.3,0.5c0.1,0,0.3,0.1,0.4,0.1
		c0.3,0,0.6,0,0.8,0c0.2,0,0.5-0.1,0.5,0.3c0,0.3,0,0.5-0.4,0.6c-0.4,0.1-0.8,0.1-1.2,0.1c-0.2,0-0.5-0.1-0.7-0.1
		c-1-0.4-1-1.9-0.7-2.7c0.3-0.8,1.3-1.1,2.2-0.8c0.6,0.3,1.1,1.2,0.9,1.9c0,0.2-0.1,0.2-0.3,0.2C731,282.9,730.7,282.9,730.4,282.9z
		 M729.9,282.3c0.1-0.2,0.5,0.2,0.5-0.3c0-0.3-0.2-0.5-0.5-0.5c-0.4,0-0.6,0.2-0.5,0.5C729.4,282.4,729.8,282.2,729.9,282.3z"/>
	<path class="st6" d="M720.7,283c-0.2,0-0.5,0-0.7,0c-0.1,0-0.3-0.1-0.3,0.1c-0.1,0.1,0,0.3,0.1,0.4c0.1,0.2,0.3,0.2,0.5,0.2
		c0.3,0,0.7,0,1,0c0.2,0,0.4-0.1,0.4,0.2c0,0.2,0.1,0.5-0.2,0.6c-0.6,0.1-1.3,0.3-1.9,0c-0.6-0.2-0.9-0.6-0.9-1.2c0-0.3,0-0.6,0-0.9
		c0-1,0.7-1.6,1.6-1.6c0.9,0,1.5,0.6,1.5,1.6c0,0.8,0.1,0.6-0.7,0.7C721,283,720.9,283,720.7,283z M720.2,282.4
		c0.2-0.1,0.5,0.2,0.5-0.2c0-0.3-0.2-0.5-0.6-0.5c-0.3,0-0.5,0.2-0.5,0.5C719.7,282.6,720.1,282.2,720.2,282.4z"/>
	<path class="st6" d="M713.2,283.1c-0.2,0-0.4,0-0.6,0c-0.1,0-0.4-0.1-0.4,0.1c0,0.2,0.1,0.5,0.4,0.5c0.2,0,0.4,0,0.6,0
		c0.2,0,0.4,0,0.6,0c0.2,0,0.4-0.1,0.4,0.2c0,0.2,0.1,0.5-0.2,0.6c-0.6,0.1-1.2,0.3-1.8,0.1c-0.6-0.2-1-0.7-1-1.3
		c0-0.5-0.1-0.9,0.1-1.4c0.2-0.8,0.9-1.2,1.7-1.1c0.8,0.1,1.3,0.6,1.4,1.4c0,0,0,0,0,0c0,0.8,0,0.8-0.7,0.8
		C713.4,283.1,713.3,283.1,713.2,283.1z M712.7,282.4c0.2-0.1,0.5,0.2,0.5-0.2c0-0.3-0.2-0.5-0.5-0.5c-0.3,0-0.6,0.2-0.6,0.5
		C712.2,282.6,712.5,282.3,712.7,282.4z"/>
	<path class="st6" d="M704.8,283.2c0,0.4,0,0.8,0,1.2c0,0.2-0.1,0.3-0.3,0.3c-0.5,0-1,0-1.4,0.1c-0.7,0.1-1.2-0.3-1.2-1
		c0-0.7,0.3-1.1,1.1-1.2c0.2,0,0.3,0,0.5,0c0.2,0,0.4,0,0.4-0.2c0-0.2-0.1-0.4-0.4-0.4c-0.3,0-0.7,0-1,0c-0.2,0-0.4,0-0.3-0.2
		c0-0.2-0.1-0.5,0.2-0.6c0.5-0.1,1.1-0.2,1.7,0c0.5,0.2,0.8,0.5,0.8,1C704.8,282.4,704.8,282.8,704.8,283.2z M703.4,283.1
		c-0.3,0-0.5,0.1-0.5,0.4c0,0.2,0.1,0.4,0.4,0.3c0.3,0,0.5,0,0.5-0.4C703.7,283.2,703.7,283.1,703.4,283.1z"/>
	<path class="st6" d="M741.5,280.8c0.2,0,0.5,0,0.7,0c0.3,0,0.4,0.2,0.3,0.4c-0.1,0.2-0.1,0.3-0.1,0.5c0.2,0.8-0.2,1.3-1,1.4
		c-0.3,0-0.6,0.1-0.9,0c-0.1,0-0.3,0-0.3,0.1c0,0.1,0.1,0.2,0.2,0.2c0.5,0.1,1,0.2,1.4,0.4c0.4,0.1,0.7,0.4,0.7,0.9
		c0,0.5-0.3,0.8-0.8,0.9c-0.4,0.1-0.9,0.1-1.3,0c-0.8-0.2-1.1-0.8-0.7-1.5c0.1-0.2,0.2-0.3,0-0.5c-0.1-0.1-0.1-0.2-0.1-0.3
		c0.2-0.4,0-0.8,0-1.2c0-0.7,0.4-1.2,1.2-1.2C741,280.8,741.3,280.8,741.5,280.8z M741,281.3c-0.6,0-0.9,0.2-0.8,0.7
		c0,0.4,0.3,0.6,0.9,0.6c0.6,0,0.8-0.2,0.8-0.7C741.9,281.5,741.6,281.3,741,281.3z M741.2,285.1c0.2-0.1,0.7,0,0.7-0.5
		c0-0.7-0.7-0.5-1.1-0.7c-0.3-0.1-0.5,0-0.6,0.3C740,284.8,740.4,285.1,741.2,285.1z"/>
	<path class="st6" d="M716.5,283.6c0.1-0.7,0.3-1.4,0.4-2.1c0.1-0.6,0.4-0.8,1-0.6c0.2,0,0.2,0.2,0.2,0.3c-0.3,1-0.5,1.9-0.8,2.9
		c-0.1,0.5-0.5,0.6-0.9,0.6c-0.4,0-0.7-0.2-0.8-0.6c-0.3-0.9-0.5-1.9-0.8-2.8c-0.1-0.2,0-0.3,0.3-0.3c0.8,0,0.8-0.1,0.9,0.7
		c0.1,0.7,0.3,1.3,0.5,2C716.4,283.6,716.5,283.6,716.5,283.6z"/>
	<path class="st6" d="M708.8,282.9c0-0.2,0-0.5,0-0.7c0-0.3,0-0.6-0.4-0.5c-0.3,0-0.2-0.2-0.2-0.4c0-0.2,0.1-0.3,0.3-0.3
		c0.3,0,0.4-0.1,0.4-0.4c0-0.5,0.6-0.3,0.9-0.4c0.3-0.1,0.2,0.2,0.2,0.4c0,0.2,0.1,0.4,0.3,0.3c0.3,0,0.4,0.2,0.4,0.4
		c0,0.3-0.1,0.4-0.4,0.4c-0.3,0-0.3,0.1-0.3,0.3c0,0.4,0,0.7,0,1.1c0,0.3-0.1,0.7,0.5,0.7c0.2,0,0.2,0.2,0.2,0.4
		c0,0.2-0.1,0.3-0.3,0.4c-0.9,0.2-1.4-0.2-1.5-1.1C708.8,283.3,708.8,283.1,708.8,282.9z"/>
	<path class="st6" d="M752.5,281.8c0-0.7,0-1.4,0-2c0-0.2,0-0.4,0.3-0.4c0.3,0,0.3,0.2,0.3,0.4c0,0.3-0.1,0.7,0.1,0.9
		c0.2,0.2,0.5-0.1,0.8,0c0.8,0,1.2,0.4,1.3,1.2c0,0.7,0,1.3,0,2c0,0.3-0.1,0.4-0.3,0.4c-0.3,0-0.3-0.2-0.3-0.4c0-0.6,0-1.3,0-1.9
		c0-0.3,0-0.6-0.3-0.7c-0.4-0.1-0.7-0.1-1.1,0.1c-0.1,0.1-0.1,0.2-0.1,0.3c0,0.7,0,1.4,0,2.1c0,0.2,0,0.5-0.3,0.4
		c-0.3,0-0.3-0.2-0.3-0.5C752.5,283.1,752.5,282.5,752.5,281.8z"/>
	<path class="st6" d="M732.6,282c0-0.7,0-1.3,0-2c0-0.2,0-0.4,0.3-0.4c0.3,0,0.3,0.2,0.3,0.4c0,0.3-0.1,0.7,0.1,0.9
		c0.2,0.2,0.5,0,0.8,0c0.8,0,1.2,0.3,1.3,1.2c0,0.7,0,1.4,0,2.1c0,0.2-0.1,0.3-0.3,0.3c-0.2,0-0.3-0.1-0.3-0.3c0-0.7,0-1.3,0-2
		c0-0.3-0.1-0.6-0.3-0.7c-0.4-0.1-0.7-0.1-1.1,0.1c-0.1,0.1-0.1,0.2-0.1,0.3c0,0.7,0,1.5,0,2.2c0,0.3-0.1,0.4-0.3,0.4
		c-0.2,0-0.3-0.1-0.3-0.4C732.7,283.4,732.6,282.7,732.6,282z"/>
	<path class="st6" d="M743.1,282.5c0-0.2,0-0.5,0.1-0.7c0.1-0.7,0.7-1.1,1.6-1c0.7,0,1.1,0.5,1.2,1.2c0,0.1,0,0.2,0,0.2
		c0.1,0.6,0,0.6-0.5,0.6c-0.5,0-0.9,0-1.4,0c-0.3,0-0.3,0.1-0.3,0.4c0.1,0.5,0.3,0.7,0.8,0.7c0.3,0,0.6,0,1-0.1c0.2,0,0.3,0,0.3,0.2
		c0,0.2-0.1,0.3-0.2,0.3c-0.1,0-0.3,0-0.4,0.1C743.7,284.5,743.1,284,743.1,282.5z M744.5,282.2
		C744.5,282.2,744.5,282.2,744.5,282.2c0.2,0,0.4,0,0.6,0c0.1,0,0.3,0,0.2-0.2c-0.1-0.3-0.1-0.6-0.5-0.7c-0.4-0.1-0.9,0-1,0.3
		c-0.3,0.5-0.2,0.6,0.4,0.6C744.3,282.2,744.4,282.2,744.5,282.2z"/>
	<path class="st6" d="M722.6,282c0-0.7,0-1.4,0-2.1c0-0.4,0.3-0.4,0.5-0.4c0.3,0,0.6-0.1,0.6,0.4c0,1.4,0,2.8,0,4.2
		c0,0.5-0.3,0.3-0.6,0.3c-0.3,0-0.5,0.1-0.5-0.4C722.6,283.4,722.6,282.7,722.6,282z"/>
	<path class="st6" d="M736.1,282.6c0-0.1,0-0.3,0-0.4c0-0.8,0.5-1.3,1.2-1.4c0.9-0.1,1.5,0.3,1.7,1.1c0.1,0.5,0.1,1,0,1.4
		c-0.2,0.8-0.7,1.1-1.5,1.1c-0.8-0.1-1.3-0.6-1.3-1.3C736.1,282.9,736.1,282.8,736.1,282.6z M736.7,282.6
		C736.7,282.6,736.7,282.6,736.7,282.6c0,0.2,0,0.3,0,0.5c0,0.5,0.3,0.8,0.8,0.8c0.5,0,0.8-0.3,0.8-0.8c0-0.4,0-0.7,0-1.1
		c0-0.5-0.3-0.7-0.8-0.7c-0.5,0-0.7,0.2-0.8,0.7C736.7,282.2,736.7,282.4,736.7,282.6z"/>
	<path class="st6" d="M758.8,282.4c0,1.1-0.3,1.6-1.1,1.8c-0.9,0.2-1.6-0.3-1.8-1.2c-0.1-0.4-0.1-0.8,0-1.2c0.1-0.7,0.6-1.2,1.3-1.2
		c0.9,0,1.4,0.3,1.5,1.1C758.7,282,758.7,282.2,758.8,282.4z M758.1,282.4c0-0.2,0-0.5-0.1-0.8c-0.1-0.3-0.4-0.4-0.7-0.4
		c-0.3,0-0.6,0.1-0.7,0.4c-0.2,0.5-0.2,1.1,0,1.6c0.1,0.3,0.4,0.5,0.7,0.5c0.4,0,0.6-0.2,0.8-0.5
		C758.2,282.9,758.1,282.7,758.1,282.4z"/>
	<path class="st6" d="M759.3,282.4c0-0.2,0-0.3,0-0.5c0-0.8,0.5-1.3,1.2-1.3c0.9,0,1.4,0.3,1.6,1.2c0.1,0.4,0.1,0.8,0,1.2
		c-0.1,0.8-0.7,1.3-1.5,1.2c-0.8,0-1.3-0.5-1.3-1.4C759.3,282.7,759.3,282.6,759.3,282.4C759.3,282.4,759.3,282.4,759.3,282.4z
		 M761.6,282.4c0-0.2,0-0.3,0-0.5c-0.1-0.5-0.3-0.7-0.8-0.7c-0.5,0-0.7,0.1-0.9,0.7c-0.1,0.4-0.1,0.9,0,1.3c0.1,0.4,0.3,0.5,0.7,0.6
		c0.4,0,0.7-0.1,0.8-0.5C761.6,282.9,761.6,282.6,761.6,282.4z"/>
	<path class="st6" d="M705.6,282.8c0-0.5,0-0.9,0-1.4c0-0.3,0.1-0.4,0.4-0.4c0.4,0,0.9,0.2,1.3-0.1c0.2-0.1,0.3,0,0.3,0.2
		c0,0.2,0.2,0.6-0.2,0.7c-0.7,0.2-0.7,0.2-0.7,0.9c0,0.5,0,0.9,0,1.4c0,0.4-0.1,0.5-0.5,0.5c-0.4,0-0.6,0-0.6-0.5
		C705.7,283.7,705.6,283.2,705.6,282.8z"/>
	<path class="st6" d="M747.3,283.8c0.2,0,0.4,0,0.5,0c0.2,0,0.4,0,0.5-0.3c0.1-0.3-0.1-0.4-0.3-0.6c-0.3-0.2-0.6-0.3-0.8-0.5
		c-0.2-0.1-0.4-0.2-0.5-0.4c-0.3-0.5-0.1-1.2,0.5-1.3c0.5-0.1,0.9-0.1,1.4,0c0.2,0,0.3,0.1,0.3,0.3c0,0.2-0.2,0.2-0.3,0.2
		c-0.3,0-0.6,0-0.9,0c-0.2,0-0.4,0-0.4,0.3c0,0.2,0.1,0.3,0.3,0.4c0.3,0.2,0.6,0.3,0.9,0.5c0.3,0.2,0.6,0.4,0.6,0.8
		c0,0.6-0.2,0.8-0.7,1c-0.5,0.1-0.9,0.1-1.4,0c-0.2,0-0.3-0.1-0.3-0.3c0-0.2,0.2-0.2,0.3-0.2C747.1,283.8,747.2,283.8,747.3,283.8z"
		/>
	<path class="st6" d="M749.5,282.5c0-0.4,0-0.6,0.1-0.8c0.2-0.8,1.3-1.4,2.1-1c0.2,0.1,0.2,0.2,0.1,0.4c0,0.2-0.1,0.2-0.2,0.2
		c-0.2,0-0.4,0-0.6,0c-0.6,0-0.8,0.2-0.9,0.7c0,0.3,0,0.7,0,1c0.1,0.6,0.3,0.8,0.9,0.8c0.1,0,0.3,0,0.4,0c0.1,0,0.3-0.1,0.3,0.2
		c0,0.2-0.1,0.3-0.3,0.3C750.2,284.5,749.5,283.9,749.5,282.5z"/>
	<path class="st6" d="M762.8,281.7c0-0.7,0-1.4,0-2c0-0.2,0-0.4,0.3-0.4c0.3,0,0.3,0.2,0.3,0.4c0,1.4,0,2.7,0,4.1
		c0,0.3-0.1,0.4-0.3,0.4c-0.3,0-0.3-0.2-0.3-0.4C762.8,283.1,762.8,282.4,762.8,281.7z"/>
</g>
</svg>
