<?xml version="1.0" encoding="utf-8"?>
<!-- Generator: Adobe Illustrator 22.1.0, SVG Export Plug-In . SVG Version: 6.00 Build 0)  -->
<svg version="1.1" id="Laag_1" xmlns="http://www.w3.org/2000/svg" xmlns:xlink="http://www.w3.org/1999/xlink" x="0px" y="0px"
	 viewBox="0 0 815.8 243" style="enable-background:new 0 0 815.8 243;" xml:space="preserve">
<style type="text/css">
	.st0{fill:none;}
	.st1{enable-background:new    ;}
	.st2{fill:#FCAF17;}
	.st3{fill:#00ABC7;}
	.st4{fill:#B0D235;}
	.st5{fill:#669940;}
	.st6{fill:#00B4CD;}
	.st7{fill:#008791;}
	.st8{fill:#C8892B;}
	.st9{fill:#D80B8C;}
	.st10{fill:#A92176;}
</style>
<rect x="94.3" y="107.2" class="st0" width="741" height="163.9"/>
<g class="st1">
	<path class="st2" d="M119.5,163c-11.9,0-21.3-6.4-21.3-23.1v-8.6c0-16.7,9.4-23.1,21.3-23.1c11.9,0,21.3,6.4,21.3,23.1v8.6
		C140.8,156.6,131.3,163,119.5,163z M128.4,131.4c0-8.6-2.9-12.3-8.9-12.3c-6,0-8.9,3.7-8.9,12.3v8.6c0,8.6,2.8,12.3,8.9,12.3
		c6,0,8.9-3.7,8.9-12.3V131.4z"/>
	<path class="st2" d="M167.6,143.7c-1.7,0-4-0.1-5.8-0.2V161c0,0.8-0.6,1.4-1.4,1.4h-9.3c-0.8,0-1.4-0.6-1.4-1.4v-48.4
		c0-2.4,1-3.1,3.2-3.5c3.7-0.6,9.4-0.9,14.6-0.9c10.9,0,21.6,3.8,21.6,17.4v0.6C189.1,139.7,178.4,143.7,167.6,143.7z M176.8,125.6
		c0-5.1-3.2-7.1-9.2-7.1c-1,0-5,0.1-5.8,0.2v14.7c0.8,0.1,5,0.1,5.8,0.1c6.4,0,9.2-2.4,9.2-7.3V125.6z"/>
	<path class="st2" d="M227.7,162.1c-2.5,0.4-6.2,0.9-14,0.9c-9.3,0-17.5-2.4-17.5-15.5v-23.9c0-13.1,8.3-15.4,17.6-15.4
		c7.8,0,11.4,0.6,13.9,0.9c1,0.1,1.4,0.5,1.4,1.4v6.7c0,0.8-0.6,1.4-1.4,1.4h-14.6c-3.4,0-4.6,1.2-4.6,4.9v6.6h18.6
		c0.8,0,1.4,0.6,1.4,1.4v6.8c0,0.8-0.6,1.4-1.4,1.4h-18.6v7.6c0,3.7,1.2,4.9,4.6,4.9h14.6c0.8,0,1.4,0.6,1.4,1.4v6.7
		C229.2,161.5,228.8,162,227.7,162.1z"/>
	<path class="st2" d="M277.9,162.4h-7.1c-1.5,0-2.6-0.3-3.7-2.2l-16.4-28.4c-0.3-0.4-0.4-0.6-0.6-0.6c-0.2,0-0.4,0.1-0.4,0.6V161
		c0,0.8-0.6,1.4-1.4,1.4h-8.5c-0.8,0-1.4-0.6-1.4-1.4v-49.3c0-1.5,1.2-2.7,2.7-2.7h7.3c1.4,0,2.2,0.7,3,2.2l17.1,29.7
		c0.3,0.4,0.4,0.6,0.6,0.6c0.1,0,0.4-0.1,0.4-0.6v-30.5c0-0.8,0.6-1.4,1.4-1.4h8.5c0.8,0,1.4,0.6,1.4,1.4v49.4
		C280.7,161.2,279.4,162.4,277.9,162.4z"/>
	<path class="st2" d="M308.2,163c-6,0-12.4-0.6-15.3-1.1c-1.4-0.2-2.1-0.9-2.1-2.5v-47.6c0-1.7,0.7-2.3,2.1-2.5
		c3-0.5,9.4-1.1,15.3-1.1c14.3,0,23,7.6,23,22.8v9.3C331.1,155.5,322.5,163,308.2,163z M318.8,131c0-9.7-4.2-12.3-10.7-12.3
		c-1.8,0-4.1,0.1-5.1,0.1v33.6c1,0.1,3.3,0.1,5.1,0.1c6.5,0,10.7-2.6,10.7-12.3V131z"/>
	<path class="st2" d="M371.1,162.1c-2.5,0.4-6.2,0.9-14,0.9c-9.3,0-17.5-2.4-17.5-15.5v-23.9c0-13.1,8.3-15.4,17.6-15.4
		c7.8,0,11.4,0.6,13.9,0.9c1,0.1,1.4,0.5,1.4,1.4v6.7c0,0.8-0.6,1.4-1.4,1.4h-14.6c-3.4,0-4.6,1.2-4.6,4.9v6.6h18.6
		c0.8,0,1.4,0.6,1.4,1.4v6.8c0,0.8-0.6,1.4-1.4,1.4h-18.6v7.6c0,3.7,1.2,4.9,4.6,4.9h14.6c0.8,0,1.4,0.6,1.4,1.4v6.7
		C372.5,161.5,372.1,162,371.1,162.1z"/>
	<path class="st2" d="M402.1,163c-11.4,0-20.7-4.3-20.7-20.7v-32c0-0.8,0.6-1.4,1.4-1.4h9.4c0.8,0,1.4,0.6,1.4,1.4v32
		c0,7.3,1.9,10.4,8.4,10.4c6.5,0,8.5-3.1,8.5-10.4v-32c0-0.8,0.6-1.4,1.4-1.4h9.4c0.8,0,1.5,0.6,1.5,1.4v32
		C422.9,158.7,413.6,163,402.1,163z"/>
	<path class="st2" d="M473,162.4h-11c-0.8,0-1.1-0.7-1.4-1.4l-9.6-18.2l-0.8,0.1c-1.5,0-3.7-0.1-5.1-0.1V161c0,0.8-0.6,1.4-1.4,1.4
		h-9.4c-0.8,0-1.4-0.6-1.4-1.4v-48.3c0-2.4,1-3.1,3.2-3.5c3.3-0.5,9.4-0.9,14.6-0.9c12.2,0,21.7,4.1,21.7,16.8v0.9
		c0,7.6-4,12.3-9.3,14.4l10.9,20.3c0.1,0.3,0.2,0.6,0.2,0.8C474.1,162,473.8,162.4,473,162.4z M460.1,125.1c0-4.4-3.4-6.4-9.4-6.4
		c-1,0-4.8,0.1-5.6,0.2v13.8c0.8,0.1,4.3,0.1,5.1,0.1c7.6,0,9.9-1.9,9.9-6.8V125.1z"/>
	<path class="st2" d="M499.2,163c-6,0-12.4-0.6-15.3-1.1c-1.4-0.2-2.1-0.9-2.1-2.5v-47.6c0-1.7,0.7-2.3,2.1-2.5
		c3-0.5,9.4-1.1,15.3-1.1c14.3,0,23,7.6,23,22.8v9.3C522.1,155.5,513.5,163,499.2,163z M509.8,131c0-9.7-4.2-12.3-10.7-12.3
		c-1.8,0-4.1,0.1-5.1,0.1v33.6c1,0.1,3.3,0.1,5.1,0.1c6.5,0,10.7-2.6,10.7-12.3V131z"/>
	<path class="st2" d="M570.2,162.4h-10.1c-0.7,0-1.3-0.6-1.4-1.3l-2.6-11.8h-14.8l-2.6,11.8c-0.1,0.7-0.7,1.3-1.4,1.3h-10.1
		c-0.7,0-1.2-0.4-1.2-1.2c0-0.1,0.1-0.2,0.1-0.4l10.7-44.6c1.7-6.9,7-8,12-8s10.2,1.1,11.9,8l10.7,44.6c0,0.1,0.1,0.3,0.1,0.4
		C571.5,162,571,162.4,570.2,162.4z M549.7,119.5c-0.1-0.7-0.3-1.1-0.9-1.1s-0.9,0.4-1,1.1l-4.4,19.9h10.7L549.7,119.5z"/>
	<path class="st2" d="M612.1,119.5c-0.1,0-0.1,0-0.2,0c-3.5-0.1-8.9-0.6-15-0.6c-5.8,0-9.4,2.8-9.4,12.2v9c0,9.9,4.5,12.2,8.1,12.2
		c2,0,3.8-0.1,5.5-0.2v-16.6c0-0.8,0.6-1.4,1.4-1.4h9.2c0.8,0,1.4,0.6,1.4,1.4v24.2c0,1-0.4,1.4-1.4,1.7c-3.9,0.8-8.9,1.5-16.1,1.5
		c-8.2,0-20.5-4.7-20.5-22.9v-8.9c0-18.4,11.4-23,21.9-23c7.2,0,12.4,1.1,15,1.7c0.7,0.1,1.2,0.4,1.2,1.1v7.6
		C613.2,119.4,612.7,119.5,612.1,119.5z"/>
</g>
<g class="st1">
	<path class="st3" d="M125.4,194.3c-0.1,0-0.1,0-0.2,0c-2.6-0.1-6.8-0.4-11.4-0.4c-4.5,0-7.2,2.1-7.2,9.3v6.9c0,7.6,3.5,9.3,6.2,9.3
		c1.5,0,2.9-0.1,4.2-0.2v-12.6c0-0.6,0.4-1.1,1-1.1h7c0.6,0,1.1,0.5,1.1,1.1v18.5c0,0.8-0.3,1.1-1.1,1.3c-3,0.6-6.8,1.2-12.3,1.2
		c-6.3,0-15.7-3.6-15.7-17.5v-6.8c0-14,8.7-17.5,16.7-17.5c5.5,0,9.5,0.8,11.5,1.3c0.5,0.1,0.9,0.3,0.9,0.8v5.8
		C126.2,194.2,125.9,194.3,125.4,194.3z"/>
	<path class="st3" d="M149.5,202.4h-0.4c-2.7,0-5.1,0.8-7.1,1.9v21.5c0,0.6-0.5,1.2-1.1,1.2h-6.7c-0.6,0-1.2-0.5-1.2-1.2v-29.3
		c0-0.6,0.5-1.1,1.1-1.1h6.5c0.6,0,1.1,0.5,1.1,1.1v1.1c2-1.7,4.8-2.6,7.4-2.6c0.6,0,1.1,0.5,1.1,1.1v5.2
		C150.4,201.9,150,202.4,149.5,202.4z"/>
	<path class="st3" d="M176.8,227h-6.2c-0.6,0-1.1-0.5-1.1-1.1V225c-2.1,1.5-4.3,2.5-7.6,2.5c-4.8,0-9.4-2.3-9.4-9.5v-0.5
		c0-6.4,4.1-9.3,13.5-9.3h3v-2c0-3.1-1.5-3.8-4.1-3.8c-3.5,0-7.4,0.2-9.1,0.4h-0.3c-0.6,0-1-0.3-1-1v-4.5c0-0.6,0.4-1,1-1.2
		c2-0.5,5.9-1.2,9.5-1.2c7.9,0,12.9,3.2,12.9,11.2v19.6C177.9,226.5,177.4,227,176.8,227z M169.2,213.5H166c-3.8,0-4.8,1.3-4.8,4
		v0.5c0,2.3,1.2,2.8,3.5,2.8c1.6,0,3.2-0.5,4.5-1.2V213.5z"/>
	<path class="st3" d="M200.7,191.1h-2.7c-1.6,0-1.8,0.4-1.8,2.6v1.8h18c0.6,0,1.1,0.5,1.1,1.2v29.2c0,0.6-0.5,1.2-1.1,1.2h-6.7
		c-0.6,0-1.2-0.5-1.2-1.2v-23.7h-10.2v23.8c0,0.6-0.5,1.1-1.1,1.1h-6.8c-0.6,0-1.1-0.5-1.1-1.1v-23.8l-4.4-0.7
		c-0.6-0.1-1.2-0.5-1.2-1.2v-3.6c0-0.6,0.5-1.2,1.2-1.2h4.4v-1.8c0-7.8,3.2-9.4,9.2-9.4c1.6,0,2.7,0.2,4.3,0.4c0.7,0.1,1,0.5,1,1.1
		v4.3C201.9,190.8,201.5,191.1,200.7,191.1z M214.4,191.9h-7c-0.6,0-1.2-0.5-1.2-1.1v-5.1c0-0.6,0.6-1.1,1.2-1.1h7
		c0.6,0,1.2,0.5,1.2,1.1v5.1C215.5,191.4,215,191.9,214.4,191.9z"/>
	<path class="st3" d="M232.4,227.5c-3,0-7.2-0.4-10-1.2c-0.7-0.2-1-0.6-1-1.3v-4.5c0-0.5,0.4-1,1-1c0.1,0,0.2,0,0.2,0
		c3,0.4,7.6,0.8,9.3,0.8c2.6,0,3.2-0.7,3.2-2.1c0-0.8-0.5-1.4-2-2.3l-7.1-4.1c-3.1-1.8-4.9-4.6-4.9-8.1c0-5.6,3.7-8.5,11.3-8.5
		c4.3,0,7,0.6,9.8,1.3c0.7,0.2,1,0.6,1,1.3v4.5c0,0.7-0.4,1-0.9,1c-0.1,0-0.1,0-0.2,0c-1.6-0.2-6.3-0.7-9.1-0.7
		c-2.1,0-2.9,0.3-2.9,1.6c0,0.8,0.6,1.3,1.7,1.9l6.8,3.9c4.6,2.6,5.6,5.5,5.6,8.5C244.2,223.4,240.5,227.5,232.4,227.5z"/>
	<path class="st3" d="M269.1,226.7c-1.5,0.4-4,0.8-7.3,0.8c-7.8,0-12.8-4.9-12.8-13.9V209c0-9,5.1-13.9,12.8-13.9
		c3.3,0,5.8,0.4,7.3,0.8c0.8,0.2,1.2,0.4,1.2,1.3v4.9c0,0.5-0.5,0.9-1,0.9c0,0-0.1,0-0.1,0c-2-0.2-3.6-0.4-6.7-0.4
		c-2.5,0-4.5,1.5-4.5,6.4v4.6c0,4.9,2,6.4,4.5,6.4c3.1,0,4.7-0.2,6.7-0.4c0.1,0,0.1,0,0.1,0c0.5,0,1,0.4,1,0.9v4.9
		C270.3,226.2,269.9,226.4,269.1,226.7z"/>
	<path class="st3" d="M301.8,227h-6.7c-0.6,0-1.1-0.5-1.1-1.2v-18.3c0-3.8-0.7-5.1-4.1-5.1c-1.6,0-3.3,0.8-5.2,1.8v21.7
		c0,0.6-0.5,1.2-1.1,1.2H277c-0.6,0-1.2-0.5-1.2-1.2v-39.9c0-0.6,0.5-1.1,1.1-1.1h6.7c0.6,0,1.1,0.5,1.1,1.1v11.6
		c2.8-1.8,5.1-2.5,8.4-2.5c8,0,9.7,5.6,9.7,12.5v18.3C302.9,226.4,302.4,227,301.8,227z"/>
	<path class="st3" d="M335.1,214h-17.5v0.1c0,3.1,1.3,6,5.7,6c3.5,0,8.4-0.3,10.6-0.5c0.1,0,0.1,0,0.2,0c0.6,0,1,0.3,1,0.9v4.2
		c0,0.9-0.2,1.3-1.2,1.5c-3.5,0.9-6.5,1.3-11.3,1.3c-6.7,0-13.8-3.5-13.8-14.1v-3.8c0-8.9,5.2-14.5,13.9-14.5
		c9,0,13.6,6.2,13.6,14.5v3.2C336.2,213.5,335.8,214,335.1,214z M327.5,208.3c0-4.1-1.9-6.1-4.9-6.1c-3,0-5.1,2.1-5.1,6.1v0.2h10
		V208.3z"/>
	<path class="st3" d="M381.8,214h-17.5v0.1c0,3.1,1.3,6,5.7,6c3.5,0,8.4-0.3,10.6-0.5c0.1,0,0.1,0,0.2,0c0.6,0,1,0.3,1,0.9v4.2
		c0,0.9-0.2,1.3-1.2,1.5c-3.5,0.9-6.5,1.3-11.3,1.3c-6.7,0-13.8-3.5-13.8-14.1v-3.8c0-8.9,5.2-14.5,13.9-14.5
		c9,0,13.6,6.2,13.6,14.5v3.2C383,213.5,382.5,214,381.8,214z M374.3,208.3c0-4.1-1.9-6.1-4.9-6.1c-3,0-5.1,2.1-5.1,6.1v0.2h10
		V208.3z"/>
	<path class="st3" d="M414.6,227H408c-0.6,0-1.1-0.5-1.1-1.2v-18.3c0-3.8-0.7-5.1-4.1-5.1c-1.6,0-3.3,0.8-5.2,1.8v21.7
		c0,0.6-0.5,1.2-1.1,1.2h-6.7c-0.6,0-1.2-0.5-1.2-1.2v-29.3c0-0.6,0.5-1.1,1.1-1.1h6.2c0.6,0,1.1,0.5,1.1,1.1v1.3
		c3-2.1,5.4-2.9,9-2.9c8,0,9.7,5.6,9.7,12.5v18.3C415.8,226.4,415.2,227,414.6,227z"/>
	<path class="st3" d="M450.6,227.5c-4.6,0-9.5-0.4-11.7-0.8c-1-0.2-1.6-0.7-1.6-1.9v-36.3c0-1.3,0.5-1.8,1.6-1.9
		c2.3-0.4,7.1-0.8,11.7-0.8c10.9,0,17.5,5.8,17.5,17.4v7.1C468.1,221.7,461.5,227.5,450.6,227.5z M458.7,203c0-7.4-3.2-9.4-8.1-9.4
		c-1.4,0-3.1,0.1-3.9,0.1v25.7c0.8,0.1,2.5,0.1,3.9,0.1c5,0,8.1-2,8.1-9.4V203z"/>
	<path class="st3" d="M482.5,191.9h-7.1c-0.6,0-1.1-0.5-1.1-1.1v-5.1c0-0.6,0.5-1.1,1.1-1.1h7.1c0.6,0,1.1,0.5,1.1,1.1v5.1
		C483.6,191.4,483.1,191.9,482.5,191.9z M482.2,227h-6.7c-0.6,0-1.1-0.5-1.1-1.1v-29.3c0-0.6,0.5-1.1,1.1-1.1h6.7
		c0.6,0,1.1,0.5,1.1,1.1v29.3C483.3,226.5,482.8,227,482.2,227z"/>
	<path class="st3" d="M517.6,201.3l-1.7,0.5c0.7,1,1.2,2.7,1.2,4.1v0.4c0,7.1-5,10.3-13.6,10.3c-2.6,0-4.6-0.4-5.7-0.8
		c-0.6,0.4-0.8,0.8-0.8,1.3c0,0.9,0.3,1.3,1.6,1.5l6.2,1.4c9.6,2.1,12.9,3.6,12.9,8.9v0.4c0,6-4.7,9-14.4,9c-9.1,0-14-3.2-14-9v-0.4
		c0-2.3,0.9-4.3,3.3-6.2c-2-1.1-2.8-3.3-2.8-5.1c0-2,1-3.6,2.4-4.7c-1.8-1.5-2.5-4.3-2.5-6.5v-0.4c0-6.2,4.1-10.4,13.7-10.4h13.7
		c0.8,0,1.4,0.7,1.4,1.4v3.1C518.6,200.8,518.3,201,517.6,201.3z M508.7,228.8c0-1-0.7-1.8-5.7-2.9l-4.1-0.9
		c-0.7,0.9-1.1,1.8-1.1,3.7v0.4c0,1.9,1.3,2.8,5.5,2.8c4.5,0,5.3-1.2,5.3-2.8V228.8z M508.4,205.9c0-2.3-1-4-4.9-4s-5,1.7-5,4v0.4
		c0,1.9,0.8,3.8,5,3.8c3.8,0,4.9-1.5,4.9-3.8V205.9z"/>
	<path class="st3" d="M531.4,191.9h-7.1c-0.6,0-1.1-0.5-1.1-1.1v-5.1c0-0.6,0.5-1.1,1.1-1.1h7.1c0.6,0,1.1,0.5,1.1,1.1v5.1
		C532.5,191.4,532,191.9,531.4,191.9z M531.1,227h-6.7c-0.6,0-1.1-0.5-1.1-1.1v-29.3c0-0.6,0.5-1.1,1.1-1.1h6.7
		c0.6,0,1.1,0.5,1.1,1.1v29.3C532.2,226.5,531.7,227,531.1,227z"/>
	<path class="st3" d="M556.2,227c-1.6,0.3-2.8,0.4-4.3,0.4c-6,0-9.2-1.6-9.2-9.4v-15.9l-4.4-0.7c-0.6-0.1-1.2-0.5-1.2-1.2v-3.6
		c0-0.6,0.5-1.2,1.2-1.2h4.4V191c0-0.6,0.5-1,1.1-1.1l6.7-1.2c0.1,0,0.1,0,0.2,0c0.5,0,1,0.4,1,0.9v5.8h4.5c0.6,0,1.1,0.5,1.1,1.1
		v4.5c0,0.6-0.5,1.1-1.1,1.1h-4.5v16c0,2.2,0.2,2.6,1.8,2.6h2.7c0.7,0,1.2,0.3,1.2,0.9v4.3C557.2,226.5,556.8,226.9,556.2,227z"/>
	<path class="st3" d="M585.4,227h-6.2c-0.6,0-1.1-0.5-1.1-1.1V225c-2.1,1.5-4.3,2.5-7.6,2.5c-4.8,0-9.4-2.3-9.4-9.5v-0.5
		c0-6.4,4.1-9.3,13.5-9.3h3v-2c0-3.1-1.5-3.8-4.1-3.8c-3.5,0-7.4,0.2-9.1,0.4h-0.3c-0.5,0-1-0.3-1-1v-4.5c0-0.6,0.4-1,1-1.2
		c2-0.5,5.9-1.2,9.5-1.2c7.9,0,12.9,3.2,12.9,11.2v19.6C586.5,226.5,586,227,585.4,227z M577.8,213.5h-3.1c-3.8,0-4.8,1.3-4.8,4v0.5
		c0,2.3,1.2,2.8,3.5,2.8c1.6,0,3.2-0.5,4.5-1.2V213.5z"/>
	<path class="st3" d="M601,227h-6.7c-0.6,0-1.2-0.5-1.2-1.2v-39.9c0-0.6,0.5-1.1,1.2-1.1h6.7c0.6,0,1,0.5,1,1.1v39.9
		C602,226.4,601.6,227,601,227z"/>
	<path class="st3" d="M634.1,214h-17.5v0.1c0,3.1,1.3,6,5.7,6c3.5,0,8.4-0.3,10.6-0.5c0.1,0,0.1,0,0.2,0c0.6,0,1,0.3,1,0.9v4.2
		c0,0.9-0.2,1.3-1.2,1.5c-3.5,0.9-6.5,1.3-11.3,1.3c-6.7,0-13.8-3.5-13.8-14.1v-3.8c0-8.9,5.2-14.5,13.9-14.5
		c9,0,13.6,6.2,13.6,14.5v3.2C635.3,213.5,634.9,214,634.1,214z M626.6,208.3c0-4.1-1.9-6.1-4.9-6.1c-3,0-5.1,2.1-5.1,6.1v0.2h10
		V208.3z"/>
	<path class="st3" d="M692.2,227h-7.3c-0.5,0-0.9-0.5-0.9-1.1V203c0-0.4-0.2-0.4-0.3-0.4c-0.2,0-0.3,0.1-0.4,0.4l-5,9.1
		c-0.4,0.7-0.9,0.9-1.6,0.9h-4.4c-0.7,0-1.3-0.3-1.6-0.9l-4.9-9.1c-0.2-0.3-0.3-0.4-0.4-0.4c-0.1,0-0.3,0.1-0.3,0.4v22.9
		c0,0.6-0.4,1.1-0.9,1.1h-7.3c-0.4,0-0.9-0.2-0.9-0.8V188c0-1.2,0.8-1.9,2-1.9h5.2c1.2,0,1.9,0.5,2.4,1.5l8.4,15.7
		c0.2,0.4,0.4,0.7,0.6,0.7c0.2,0,0.4-0.3,0.6-0.7l8.4-15.7c0.5-0.9,1.3-1.5,2.4-1.5h5.2c1.2,0,2,0.8,2,1.9v38.2
		C693.1,226.8,692.6,227,692.2,227z"/>
	<path class="st3" d="M725.8,214h-17.5v0.1c0,3.1,1.3,6,5.7,6c3.5,0,8.4-0.3,10.6-0.5c0.1,0,0.1,0,0.2,0c0.6,0,1,0.3,1,0.9v4.2
		c0,0.9-0.2,1.3-1.2,1.5c-3.5,0.9-6.5,1.3-11.3,1.3c-6.7,0-13.8-3.5-13.8-14.1v-3.8c0-8.9,5.2-14.5,13.9-14.5
		c9,0,13.6,6.2,13.6,14.5v3.2C726.9,213.5,726.5,214,725.8,214z M718.2,208.3c0-4.1-1.9-6.1-4.9-6.1c-3,0-5.1,2.1-5.1,6.1v0.2h10
		V208.3z"/>
	<path class="st3" d="M757.2,226.1c-3.1,0.8-7.5,1.4-11.7,1.4c-8.9,0-13.8-5.2-13.8-14.1v-4.3c0-8.6,4.5-14.1,13.8-14.1
		c1.1,0,2.9,0.2,4.5,0.4v-9.5c0-0.6,0.5-1.1,1.1-1.1h6.7c0.6,0,1.2,0.5,1.2,1.1v38.5C758.9,225.3,758.7,225.7,757.2,226.1z
		 M750,202.7c-1.3-0.2-3.2-0.3-4.5-0.3c-3.9,0-4.9,2.9-4.9,6.7v4.3c0,3.9,1,6.8,4.9,6.8c1.8,0,3.5-0.2,4.5-0.3V202.7z"/>
	<path class="st3" d="M773.8,191.9h-7.1c-0.6,0-1.1-0.5-1.1-1.1v-5.1c0-0.6,0.5-1.1,1.1-1.1h7.1c0.6,0,1.1,0.5,1.1,1.1v5.1
		C774.9,191.4,774.4,191.9,773.8,191.9z M773.6,227h-6.7c-0.6,0-1.1-0.5-1.1-1.1v-29.3c0-0.6,0.5-1.1,1.1-1.1h6.7
		c0.6,0,1.1,0.5,1.1,1.1v29.3C774.7,226.5,774.2,227,773.6,227z"/>
	<path class="st3" d="M804.7,227h-6.2c-0.6,0-1.1-0.5-1.1-1.1V225c-2.1,1.5-4.3,2.5-7.6,2.5c-4.8,0-9.4-2.3-9.4-9.5v-0.5
		c0-6.4,4.1-9.3,13.5-9.3h3v-2c0-3.1-1.5-3.8-4.1-3.8c-3.5,0-7.4,0.2-9.1,0.4h-0.3c-0.5,0-1-0.3-1-1v-4.5c0-0.6,0.4-1,1-1.2
		c2-0.5,5.9-1.2,9.5-1.2c7.9,0,12.9,3.2,12.9,11.2v19.6C805.8,226.5,805.3,227,804.7,227z M797.1,213.5h-3.1c-3.8,0-4.8,1.3-4.8,4
		v0.5c0,2.3,1.2,2.8,3.5,2.8c1.6,0,3.2-0.5,4.5-1.2V213.5z"/>
</g>
<g>
	<polygon class="st4" points="69.7,4.6 132.6,4.6 165.6,44.6 102.5,44.6 	"/>
	<polygon class="st5" points="102.5,44.5 165.4,44.5 198.4,84.6 135.4,84.6 	"/>
	<polygon class="st6" points="7.8,4.6 69.7,4.6 102.5,44.6 40,44.4 	"/>
	<polygon class="st7" points="40,44.4 103,44.6 136,84.6 72.9,84.6 	"/>
	<polygon class="st2" points="7.8,4.6 40,44.4 40.4,120.6 6.5,81.5 	"/>
	<polygon class="st8" points="40,44.4 72.9,84.6 72.4,159 40.4,120.6 	"/>
	<polygon class="st9" points="6.5,81.5 40.4,120.6 40.8,196.7 6.9,157.6 	"/>
	<polygon class="st10" points="40.4,120.6 72.4,159 71.4,231.4 40.8,196.7 	"/>
</g>
</svg>
